<?xml version="1.0" standalone="no"?>
<!DOCTYPE svg PUBLIC "-//W3C//DTD SVG 20010904//EN"
 "http://www.w3.org/TR/2001/REC-SVG-20010904/DTD/svg10.dtd">
<svg version="1.0" xmlns="http://www.w3.org/2000/svg"
 width="1556.000000pt" height="1556.000000pt" viewBox="0 0 1556.000000 1556.000000"
 preserveAspectRatio="xMidYMid meet">
<metadata>
Created by potrace 1.14, written by Peter Selinger 2001-2017
</metadata>
<g transform="translate(0.000000,1556.000000) scale(0.100000,-0.100000)"
fill="#000000" stroke="none">
<path d="M500 12044 c-234 -50 -436 -254 -485 -489 -22 -106 -22 -7444 0
-7550 50 -238 252 -440 490 -490 106 -22 14444 -22 14550 0 238 50 440 252
490 490 22 106 22 7444 0 7550 -50 238 -252 440 -490 490 -103 22 -14455 21
-14555 -1z m2870 -1194 c487 -45 893 -180 1222 -410 136 -94 346 -308 437
-444 170 -255 274 -544 328 -911 13 -93 17 -184 17 -405 0 -221 -4 -312 -17
-405 -54 -367 -158 -656 -328 -911 -53 -79 -110 -146 -208 -244 -159 -159
-273 -242 -461 -338 -262 -135 -496 -206 -830 -255 -139 -20 -190 -21 -1237
-24 l-1093 -4 0 2181 0 2180 1028 0 c630 0 1071 -4 1142 -10z m5080 -14 c179
-26 303 -54 418 -92 415 -139 647 -391 723 -785 28 -148 24 -409 -9 -531 -51
-188 -147 -353 -277 -477 -73 -69 -204 -163 -245 -176 -11 -4 -20 -9 -20 -13
0 -4 41 -23 92 -42 286 -110 507 -323 611 -589 104 -267 99 -637 -10 -893 -66
-154 -181 -301 -312 -402 -240 -184 -589 -292 -1051 -326 -78 -6 -612 -10
-1267 -10 l-1133 0 0 2181 0 2180 1183 -4 c1053 -3 1195 -5 1297 -21z m3140
-821 l0 -845 810 0 810 0 0 845 0 845 575 0 575 0 0 -2180 0 -2180 -575 0
-575 0 -2 843 -3 842 -807 3 -808 2 0 -845 0 -845 -565 0 -565 0 0 2180 0
2180 565 0 565 0 0 -845z m-127 -4424 c21 -13 50 -42 65 -64 25 -37 27 -50 31
-159 6 -216 -45 -356 -178 -488 -87 -87 -164 -131 -277 -160 -76 -20 -130 -20
-4914 -20 l-4837 0 -44 23 c-24 13 -57 43 -74 66 -29 41 -30 48 -33 162 -4
145 13 237 65 339 78 158 245 285 418 320 22 4 2223 7 4890 6 l4850 -1 38 -24z
m2760 0 c21 -13 50 -42 65 -64 l27 -41 0 -327 0 -327 -30 -43 c-16 -23 -50
-53 -74 -66 l-44 -23 -417 0 -417 0 -44 23 c-24 13 -57 43 -74 66 l-30 43 -3
303 c-2 200 1 318 8 345 13 49 76 115 122 129 20 6 205 9 453 8 l420 -2 38
-24z"/>
<path d="M2380 8680 l0 -1262 428 5 c385 4 436 6 520 25 244 54 417 143 566
289 197 195 298 443 327 802 24 307 -26 603 -141 831 -117 232 -334 414 -592
499 -181 60 -220 64 -680 68 l-428 5 0 -1262z"/>
<path d="M7130 9556 l0 -486 404 0 c436 0 488 5 619 54 174 66 274 184 299
355 38 262 -99 451 -388 532 -75 21 -103 22 -506 26 l-428 5 0 -486z"/>
<path d="M7130 7809 l0 -490 528 3 c506 4 530 5 607 26 179 49 295 133 356
258 29 59 33 77 37 173 5 119 -10 191 -54 267 -56 95 -186 182 -329 219 -110
28 -236 35 -692 35 l-453 0 0 -491z"/>
</g>
</svg>
